<?xml version="1.0" encoding="utf-8"?>
<!-- Generator: Adobe Illustrator 17.1.0, SVG Export Plug-In . SVG Version: 6.00 Build 0)  -->
<!DOCTYPE svg PUBLIC "-//W3C//DTD SVG 1.1//EN" "http://www.w3.org/Graphics/SVG/1.1/DTD/svg11.dtd">
<svg version="1.1" id="Layer_1" xmlns="http://www.w3.org/2000/svg" xmlns:xlink="http://www.w3.org/1999/xlink" x="0px" y="0px"
	 viewBox="0 0 466.4 135.1" enable-background="new 0 0 466.4 135.1" xml:space="preserve">
<g>
	<g>
		<polygon fill="#EA7200" points="44.5,25.4 0,25.4 0,38.3 13.6,38.3 13.6,89.1 31.7,89.1 31.7,38.3 45.3,38.3 45.3,25.4 		"/>
		<path fill="#EA7200" d="M74.2,26.3L74.2,26.3c-6.4,2.6-8.8,7.3-8.8,16.8v28.4c0,6.5,0.8,9.5,3.3,12.6c3.2,4.2,9.5,6.2,19.4,6.2
			c5.8,0,10.2-0.7,13.9-2.1c6.4-2.5,8.8-7.3,8.8-16.8V43.1c0-6.5-0.8-9.6-3.1-12.7c-3.4-4.2-9.7-6.2-19.5-6.3
			C82.5,24.1,78.1,24.8,74.2,26.3 M83.5,73.4V41c0-3.2,1.3-4.4,4.7-4.4c3.3,0,4.6,1.2,4.6,4.4v32.4c0,3.2-1.2,4.4-4.6,4.4
			C84.8,77.8,83.5,76.6,83.5,73.4"/>
		<path fill="#EA7200" d="M133.6,25.4h-0.9v63.7h18.1V66.8h12.1c9.1,0,14.2-4.6,14.2-12.9V39.7c0-9.7-4.8-14.3-15.2-14.3H133.6z
			 M155.3,38.3c3.9,0,4.7,1.2,4.7,3.4v8.8c0,2.2-0.7,3.4-4.7,3.4h-4.5V38.3H155.3z"/>
	</g>
	<rect x="241" y="103.3" fill="#23295D" width="221.6" height="31.8"/>
	<g>
		<path fill="#FFFFFF" d="M259.9,129.2c-2.1,0-3.8-0.7-5-2.1c-1.2-1.4-1.8-3.4-1.8-5.9v-11.6h2.9v12.4c0,1.6,0.3,2.8,1,3.4
			c0.7,0.7,1.7,1,2.9,1c1.2,0,2.1-0.3,2.7-1c0.6-0.7,1-1.8,1-3.4v-12.4h2.9v11.6c0,2.6-0.6,4.6-1.7,6
			C263.7,128.5,262.1,129.2,259.9,129.2z"/>
		<path fill="#FFFFFF" d="M279.6,114.6v14.6h-2.9v-19.6h3.6l7.1,14v-14h2.9v19.6H287L279.6,114.6z"/>
		<path fill="#FFFFFF" d="M300.7,109.5h2.9v19.6h-2.9V109.5z"/>
		<path fill="#FFFFFF" d="M319,129.2l-5.9-19.6h3.3l4.6,16.9l4.5-16.9h3.3l-5.9,19.6H319z"/>
		<path fill="#FFFFFF" d="M338.2,109.5h10.4v2.9h-7.5v5.2h4.7v2.9h-4.7v5.7h7.5v2.9h-10.4V109.5z"/>
		<path fill="#FFFFFF" d="M365.2,121.4h-3.4v7.7h-2.9v-19.6h6.9c2,0,3.5,0.5,4.6,1.6c1,1,1.6,2.5,1.6,4.4c0,1.4-0.3,2.6-1,3.5
			c-0.7,0.9-1.6,1.6-2.7,1.9l3.8,8.2h-3.1L365.2,121.4z M361.8,112.4v6.1h4.2c2,0,3-1,3-2.9c0-2.1-1-3.2-3-3.2H361.8z"/>
		<path fill="#FFFFFF" d="M382.9,124.8c0.6,0.5,1.3,0.8,2.1,1.1c0.8,0.3,1.7,0.4,2.7,0.4c1,0,1.8-0.2,2.4-0.7c0.6-0.5,0.9-1.1,0.9-2
			c0-0.8-0.4-1.5-1.3-2.1c-0.9-0.6-2-1.3-3.4-2.1c-0.6-0.3-1.2-0.7-1.7-1c-0.5-0.4-1-0.8-1.4-1.3c-0.4-0.5-0.7-1-1-1.5
			c-0.2-0.5-0.4-1.1-0.4-1.7c0-0.7,0.2-1.3,0.5-1.9c0.3-0.6,0.7-1.1,1.3-1.5c0.5-0.4,1.2-0.7,1.9-0.9c0.7-0.2,1.5-0.3,2.3-0.3
			c1.6,0,2.7,0.1,3.5,0.4c0.8,0.3,1.4,0.6,1.8,0.9l-0.8,3c-0.5-0.4-1.1-0.7-1.8-1c-0.7-0.2-1.5-0.4-2.4-0.4c-0.9,0-1.7,0.2-2.3,0.5
			c-0.6,0.3-0.9,0.7-0.9,1.2c0,0.4,0.2,0.8,0.5,1.2c0.3,0.4,0.7,0.7,1.2,1.1c0.5,0.4,1,0.7,1.6,1c0.6,0.3,1.1,0.6,1.6,0.9
			c0.5,0.3,1,0.6,1.5,1c0.5,0.4,0.9,0.8,1.3,1.2c0.4,0.5,0.7,1,1,1.7c0.3,0.6,0.4,1.4,0.4,2.3c0,0.6-0.2,1.2-0.5,1.8
			c-0.3,0.6-0.7,1.1-1.3,1.5c-0.6,0.4-1.2,0.8-2,1.1c-0.8,0.3-1.6,0.4-2.5,0.4c-1.1,0-2.1-0.1-3-0.4c-0.9-0.2-1.9-0.6-2.8-1.2
			L382.9,124.8z"/>
		<path fill="#FFFFFF" d="M404,109.5h2.9v19.6H404V109.5z"/>
		<path fill="#FFFFFF" d="M425.1,129.2h-3.2v-16.7h-5.2v-2.9h13.5v2.9h-5.1V129.2z"/>
		<path fill="#FFFFFF" d="M448.3,129.2H445v-7.4l-5.8-12.2h3.3l4.1,9.2l4.1-9.2h3.3l-5.7,12.1V129.2z"/>
	</g>
</g>
<g>
	<defs>
		<polygon id="SVGID_1_" points="334.3,27 334.3,51.8 323,51.8 323,27 307.3,27 307.3,88.3 323,88.3 323,62.4 334.3,62.4 
			334.3,88.3 349.9,88.3 349.9,27 		"/>
	</defs>
	<use xlink:href="#SVGID_1_"  overflow="visible" fill="#616161"/>
	<clipPath id="SVGID_2_">
		<use xlink:href="#SVGID_1_"  overflow="visible"/>
	</clipPath>
</g>
<polygon fill="#616161" points="375.5,27 375.5,88.3 408.2,88.3 408.2,77.8 391.2,77.8 391.2,62.2 407.2,62.2 407.2,51.8 
	391.2,51.8 391.2,37.4 408.2,37.4 408.2,27 "/>
<polygon fill="#616161" points="433.3,27 433.3,88.3 448.9,88.3 448.9,62.2 465,62.2 465,51.8 449.1,51.8 449.1,37.4 466.4,37.4 
	466.4,27 "/>
<g>
	<defs>
		<path id="SVGID_3_" d="M262,25.7c-5.3,0.1-9.8,0.7-13.5,2.1c-0.1,0-0.1,0-0.2,0.1c-0.1,0.1-0.2,0.1-0.3,0.1
			c-0.3,0.1-0.6,0.3-0.9,0.4c-0.1,0.1-0.2,0.1-0.4,0.2c-0.3,0.2-0.6,0.4-0.9,0.6c-0.1,0-0.1,0.1-0.2,0.1l-0.1,0.1
			c-0.3,0.2-0.6,0.4-0.9,0.7c-0.1,0.1-0.2,0.2-0.3,0.3c-0.2,0.2-0.4,0.4-0.6,0.6c-0.1,0.1-0.2,0.2-0.2,0.3c-0.2,0.3-0.5,0.6-0.7,0.9
			c-0.1,0.1-0.1,0.2-0.2,0.3c-0.1,0.3-0.3,0.5-0.4,0.8c-0.1,0.2-0.1,0.3-0.2,0.5c-0.1,0.3-0.2,0.6-0.3,0.9c0,0.1-0.1,0.3-0.1,0.4
			c-0.1,0.4-0.3,0.9-0.4,1.3c-0.4,1.7-0.6,3.7-0.7,6c0,0,0,0.1,0,0.1c0,0.1,0,0.1,0,0.2c0,0.1,0,0.2,0,0.3c0,0,0,0.1,0,0.1
			c0,0.1,0,0.2,0,0.4v28.4c0,0.6,0,1.2,0,1.8c0,0,0,0.1,0,0.1v0c0.1,2.5,0.3,4.4,0.8,6c0.4,1.4,1,2.5,1.9,3.6c0,0.1,0.1,0.1,0.1,0.2
			c0.1,0.1,0.1,0.2,0.2,0.2l0,0.1l0,0c0,0,0.1,0.1,0.1,0.1l0,0l0.1,0.1l0,0c0,0,0,0,0.1,0.1c0.3,0.3,0.6,0.6,0.9,0.9l0,0
			c0.2,0.2,0.5,0.4,0.7,0.6l0,0c0.3,0.2,0.5,0.4,0.8,0.5l0,0c0.3,0.2,0.6,0.4,1,0.5c0,0,0,0,0.1,0c0.3,0.1,0.6,0.3,0.9,0.4
			c0.1,0.1,0.3,0.1,0.4,0.2c0.2,0.1,0.5,0.2,0.7,0.3c0.2,0.1,0.4,0.1,0.5,0.2c0.2,0.1,0.4,0.1,0.7,0.2c0.2,0.1,0.4,0.1,0.6,0.2
			c0.2,0.1,0.5,0.1,0.7,0.2c0.2,0,0.4,0.1,0.6,0.1c0.2,0.1,0.5,0.1,0.8,0.2c0.2,0,0.4,0.1,0.7,0.1c0.3,0.1,0.6,0.1,0.8,0.1
			c0.2,0,0.4,0.1,0.7,0.1c0.3,0,0.7,0.1,1,0.1c0.2,0,0.4,0,0.6,0.1c0.5,0.1,1,0.1,1.5,0.1c0.6,0,1.1,0.1,1.7,0.1h0.1
			c0.5,0,1.1,0,1.7,0.1c5.5-0.1,10-0.6,13.5-2c0.3-0.1,0.7-0.3,1-0.4c0.1,0,0.1-0.1,0.2-0.1c0.1-0.1,0.2-0.1,0.3-0.2
			c0.2-0.1,0.5-0.3,0.7-0.4c0.1-0.1,0.2-0.2,0.4-0.2c0.2-0.1,0.4-0.3,0.6-0.4c0.1-0.1,0.2-0.2,0.3-0.3c0.2-0.2,0.4-0.3,0.5-0.5
			c0.1-0.1,0.2-0.2,0.4-0.3v0l0.1-0.1l0.2-0.2l0.2-0.2l0.1-0.2l0.1-0.1c0.1-0.1,0.1-0.1,0.2-0.2l0,0l0-0.1l0,0l0.1-0.1l0.1-0.1
			c0,0,0-0.1,0.1-0.1c0-0.1,0.1-0.1,0.1-0.2l0-0.1l0.1-0.1l0,0l0.1-0.1l0-0.1l0,0c0,0,0,0,0,0v0l0.1-0.1c0,0,0,0,0,0l0-0.1l0.1-0.1
			l0-0.1l0,0l0-0.1l0-0.1l0,0l0-0.1l0,0l0-0.1l0-0.1l0.1-0.2l0,0l0-0.1l0-0.1l0-0.1l0-0.1l0,0c0,0,0-0.1,0.1-0.1
			c0-0.1,0-0.1,0.1-0.2l0,0l0-0.1c0,0,0,0,0,0l0,0l0-0.1l0-0.1l0-0.1l0,0l0.1-0.2l0,0l0,0c0.1-0.3,0.2-0.6,0.3-0.8l0,0l0,0l0-0.1
			l0,0l0,0l0-0.1l0-0.1l0,0c0-0.1,0.1-0.3,0.1-0.4l0-0.1l0-0.1l0-0.1c0-0.1,0-0.2,0.1-0.3l0,0l0-0.1l0-0.2l0-0.1l0-0.1
			c0-0.1,0-0.2,0.1-0.3l0-0.1l0-0.1l0-0.1l0,0v0c0-0.1,0-0.2,0.1-0.3l0-0.1v0c0.1-0.3,0.1-0.7,0.1-1v0v0c0-0.1,0-0.2,0-0.3v0l0,0
			c0-0.4,0.1-0.8,0.1-1.2v0l0-0.1v0c0-0.2,0-0.4,0-0.6v0v0c0-0.4,0-0.8,0-1.2c0-0.1,0-0.1,0-0.2v0c0-0.1,0-0.2,0-0.4v-6.3h-15.7v8.4
			v0.2v0v0v0v0l0,0.2v0v0v0c0,0.1,0,0.1,0,0.2c0,0.1,0,0.2,0,0.3v0l0,0c0,0.1,0,0.1,0,0.1c0,0,0,0.1,0,0.1v0l0,0c0,0,0,0.1,0,0.1v0
			h0c0,0.1,0,0.1,0,0.1v0l0,0c0,0,0,0,0,0v0h0c0,0,0,0.1,0,0.1v0c0,0,0,0.1,0,0.1v0c0,0,0,0,0,0l0,0c-0.1,0.7-0.4,1.3-0.7,1.8l0,0
			l0,0c-0.1,0.1-0.1,0.2-0.2,0.3l0,0l0,0c-0.9,1.1-2.3,1.6-4.4,1.7h-0.1h0h-0.2H262h-0.2h-0.2h-0.1l-0.2,0h0c-0.1,0-0.2,0-0.2,0h0
			c-0.1,0-0.2,0-0.2,0h0c-2.2-0.2-3.6-1-4.3-2.7v0l0,0v0v0l0,0v0l0,0v0v0l0,0v0l0,0v0l0,0v0l0,0v0v0l0,0l0,0v0v0l0,0l0,0v0l0,0v0
			l0,0l0,0v0l0,0v0v0l0,0v0v0l0,0v0l0,0l0,0v0v0l0,0v0l0,0v0v0l0,0v0l0,0v0l0,0v0l0,0v0l0,0v0v0l0,0v0v0l0,0v0v0l0,0v0v0l0,0v0l0,0
			v0l0,0v0l0,0v0v0l0,0v0v0l0,0v0v0l0,0v0v0l0,0v0v0l0,0v0l0,0l0,0v0l0,0v0v0v0l0,0v0l0,0v0v0l0,0v0v0v0l0,0v0v0l0,0v0v0v0l0,0v0v0
			l0,0v0v0l0,0l0,0v0v0l0,0v0v0l0-0.1v0v0l0-0.1v0v0l0-0.1v0l0-0.1v0v0l0-0.1v0v0l0-0.1v0v0v0l0-0.1v0v0l0-0.2v0v0v0v0v0v0v0v0v0v0
			V41.4v0v0v0v0v0v0v0v0v0c0-0.1,0-0.2,0-0.3v0l0,0c0,0,0-0.1,0-0.1l0,0v0c0-0.1,0-0.1,0-0.2v0v0v0c0-0.1,0-0.2,0-0.3v0v0
			c0-0.1,0-0.1,0-0.2v0v0l0,0c0,0,0,0,0-0.1v0l0,0c0,0,0-0.1,0-0.1v0v0l0,0c0,0,0-0.1,0-0.1v0c0,0,0,0,0,0v0l0,0c0,0,0-0.1,0-0.1
			l0,0l0,0c0-0.1,0-0.1,0-0.2v0l0,0c0,0,0,0,0,0l0,0v0l0,0c0,0,0-0.1,0-0.1v0l0,0l0,0l0,0l0,0l0,0c0,0,0,0,0,0v0l0,0l0,0
			c0-0.1,0.1-0.2,0.1-0.2v0l0,0c0,0,0,0,0-0.1v0l0,0c0-0.1,0-0.1,0.1-0.1l0,0l0,0l0,0c0,0,0,0,0,0v0l0,0c0-0.1,0.1-0.2,0.1-0.2l0,0
			l0,0l0,0v0l0,0c0,0,0,0,0,0l0,0l0,0l0,0h0l0,0c0,0,0.1-0.1,0.1-0.1v0l0,0l0,0h0c0,0,0,0,0,0l0,0l0,0l0,0c0,0,0.1-0.1,0.1-0.1v0
			l0,0c0,0,0,0,0,0l0,0l0,0c0,0,0,0,0,0l0,0l0,0c0.1-0.1,0.2-0.2,0.2-0.3l0,0l0,0l0,0c0,0,0,0,0,0c0,0,0,0,0,0c0,0,0,0,0.1-0.1
			c0,0,0,0,0.1-0.1c0,0,0,0,0,0c0,0,0,0,0,0c0.1,0,0.1-0.1,0.2-0.1l0,0l0,0l0.1,0l0,0l0,0l0.1,0l0,0l0.1,0c0.1-0.1,0.3-0.1,0.4-0.2
			c0.8-0.4,1.8-0.5,3.1-0.5c0,0,0,0,0,0h0.1h0.2h0.2h0c0.2,0,0.5,0,0.7,0c0.1,0,0.3,0,0.4,0h0c0.1,0,0.2,0,0.3,0
			c0.4,0.1,0.8,0.1,1.2,0.3c0.1,0,0.2,0.1,0.4,0.1l0,0c0,0,0.1,0,0.1,0.1c0.3,0.1,0.5,0.3,0.8,0.4l0,0l0,0c0.1,0.1,0.2,0.2,0.3,0.2
			l0.1,0.1l0,0l0,0l0,0l0,0l0,0l0,0v0l0,0l0,0l0,0l0.1,0.1l0,0l0,0.1l0,0l0,0c0,0,0,0,0,0.1l0,0l0,0l0,0l0,0c0,0.1,0.1,0.1,0.1,0.2
			v0l0,0l0,0l0,0l0,0l0,0l0,0v0l0,0l0,0l0,0l0,0l0,0l0,0l0,0l0,0l0,0l0,0l0,0l0,0h0v0l0,0l0,0h0l0,0l0,0l0,0v0l0,0h0v0v0l0,0l0,0
			l0,0l0,0v0l0,0l0,0v0l0,0l0,0v0v0l0,0l0,0l0,0l0,0v0l0,0l0,0v0l0,0l0,0l0,0l0,0l0,0l0,0l0,0.1l0,0l0,0l0,0l0,0l0,0v0l0,0l0,0
			l0,0.1c0,0.1,0.1,0.2,0.1,0.3l0,0l0,0l0,0v0l0,0l0,0v0l0,0.1l0,0l0,0l0,0v0l0,0l0,0v0l0,0v0l0,0l0,0v0l0,0.1l0,0l0,0v0l0,0l0,0v0
			h0v0v0v0l0,0l0,0l0,0l0,0v0l0,0l0,0v0l0,0l0,0.1v0v0v0l0,0v0l0,0l0,0v0l0,0v0v0l0,0v0v0l0,0v0v0v0l0,0v0l0,0v0l0,0.1v0v0v0l0,0.1
			h0v0v0l0,0.1v0l0,0l0,0.1v0v0l0,0.1v0v0l0,0.2v0v0v0v7.8h15.6v-5.8c0-6.3-0.7-9-2.9-11.9c-0.2-0.2-0.4-0.5-0.6-0.7
			C276.7,27.5,270.5,25.9,262,25.7L262,25.7L262,25.7z"/>
	</defs>
	<use xlink:href="#SVGID_3_"  overflow="visible" fill="#616161"/>
	<clipPath id="SVGID_4_">
		<use xlink:href="#SVGID_3_"  overflow="visible"/>
	</clipPath>
</g>
<g>
	<defs>
		<path id="SVGID_5_" d="M203.5,1c0,0.2-0.1,0.5-0.1,0.7c-0.1,0.5-0.2,1-0.2,1.5c-0.2,1.6-0.5,3-0.7,4.4c-0.2,1.1-0.3,2.2-0.5,3.2
			c-0.1,0.8-0.2,1.6-0.3,2.4c-0.1,0.7-0.2,1.3-0.3,1.9c0,0.3-0.1,0.5-0.1,0.8l0,0.1c0,0.2-0.1,0.5-0.1,0.7c0,0.1,0,0.3-0.1,0.4
			c0,0.4-0.1,0.7-0.1,1.1c0,0.3-0.1,0.6-0.1,0.9c0,0.3-0.1,0.6-0.1,0.8c-0.1,0.4-0.1,0.7-0.1,1c0,0.2,0,0.3-0.1,0.5
			c0,0.1,0,0.2,0,0.3c0,0.2,0,0.3-0.1,0.5c0,0.2-0.1,0.4-0.1,0.6c0,0.2,0,0.4-0.1,0.5l0,0.1c0,0.1,0,0.2,0,0.3l0,0.1l0,0.1
			c0,0.2,0,0.4-0.1,0.6c0,0.1,0,0.2,0,0.3l0,0.1c0,0.3-0.1,0.5-0.1,0.8v0c0,0.1,0,0.3,0,0.4v0c0,0.3-0.1,0.5-0.1,0.8l0,0.1
			c0,0.2,0,0.3,0,0.5c0,0.1,0,0.2,0,0.3c-0.2,2.2-0.3,4.1-0.7,7.4c0,0.2,0,0.5-0.1,0.9l0,0.1c0,0.1,0,0.2,0,0.3c0,0.1,0,0.2,0,0.3
			c0,0.1,0,0.2,0,0.3l0,0.2c0,0.2,0,0.5,0,0.7l0,0.1c0,0.4,0,0.7-0.1,1.1c0,0.4-0.1,0.8-0.1,1.2c0,0.6-0.1,1.3-0.1,2
			c0,0.7-0.1,1.4-0.1,2.2c-0.1,2.4-0.3,5-0.4,7.7c-0.4,7.4-0.8,15-0.9,17.5v0c0,0.2,0,0.3,0,0.4c0,0.2,0,0.3,0,0.4v0l0,0.2
			c-0.1,1.8-0.6,13.7-1.1,22.8c-0.1,2-0.2,3.9-0.3,5.5c0,0.3,0,0.6-0.1,0.8c0,0.7-0.1,1.3-0.1,1.8l0,0.1c0,0.1,0,0.3,0,0.4
			c0,0.2,0,0.3,0,0.5v0.1c0,0.3,0,0.5,0,0.7l0,0.1l0,0.1v0l0,0.1c0,0.1,0,0.2,0,0.3v0v0l0,0v0l0,0.1v0v0l0,0.1v0v0l0,0.1v0v0v0
			l0,0.1v0v0l0,0.1v0v0l0,0.1v0v0l0,0.1v0v0v0v0l0,0.2v0.1l0,0.1c0,0.1,0,0.2,0,0.3v0v0l0,0.2l0,0.1v0.2v0v0c0,0.1,0,0.2,0,0.3v0.1
			l0,0.1v0.3v0.1c0,0.1,0,0.1,0,0.2v0.6v0.1v0.3v0.1c0,1.8,0,3.7,0.1,5.3c0,0.8,0.1,1.5,0.2,2c0,0.3,0.1,0.5,0.1,0.7
			c0,0.1,0,0.2,0.1,0.3c0,0.1,0.1,0.2,0.2,0.3v0c0.3,0.4,0.9,0.7,1.6,1c0.7,0.3,1.6,0.5,2.4,0.5c0.5,0,0.9-0.1,1.3-0.3
			c0.4-0.2,0.9-0.7,1.3-1.2c0.7-0.8,1.4-1.9,2-2.9c0.3-0.5,0.6-1,0.8-1.4c0.2-0.4,0.3-0.8,0.4-1.1v0v0l0.1-0.6l-0.5,0.1
			c-0.1,0-0.2-0.1-0.4-0.3c-0.2-0.2-0.5-0.6-0.8-1.1l0,0c-0.3-0.5-0.5-1-0.7-1.5l0,0l0,0l0,0h0l0-0.1l0,0l0,0l0,0l0-0.1l0,0l0,0v0
			l0-0.1l0,0l0,0h0l0,0l0,0l0-0.1v0l0,0l0,0l0,0v0l0-0.1l0,0v0l0,0l0,0l0-0.1l0,0l0,0l0,0l0-0.1v0l0,0l0,0v0l0-0.1v0l0,0l0,0h0l0,0
			c-0.1-0.2-0.1-0.4-0.1-0.6v0v0l0,0l0,0l0,0v0v0l0-0.1l0,0v0l0,0l0,0v0v0v0l0,0v0v0l0,0v0v0l0,0v0v0v0l0,0v0v0v0v0l0,0v0v0v0l0,0
			c0-0.5,0.4-3.8,0.7-7.3c0.3-3.6,0.6-7.3,0.6-8.5v-0.1v0v0v0v0v0v0v0v0v0l0-0.1v0v0v0v0v0v0c0-0.1,0-0.3-0.1-0.6l0-0.1
			c0-0.1,0-0.3,0-0.4c0-0.2-0.1-0.5-0.1-0.8c-0.1-0.5-0.1-1.1-0.2-1.7c-0.5-3.7-1.1-8.9-1.3-9.9c0.1-0.3,0.6-1.2,1.5-2
			c1-0.9,2.6-1.7,5.2-1.8h0.1h0.1c1.1,0,2.3,0.1,3.6,0.5l0,0l0.1,0l0,0h0l1,0.2l-0.3-0.4c0,0,0,0,0.1,0c0.3-0.2,0.5-0.6,0.7-1
			c0.2-0.7,0.4-1.6,0.5-2.7c0.1-1.1,0.2-2.5,0.2-4c0-8.5-1.6-22.7-3.8-35.7c-1.1-6.5-2.3-12.6-3.5-17.5c-0.6-2.5-1.2-4.6-1.8-6.4
			c-0.6-1.8-1.2-3.1-1.8-4l0,0l0,0l0,0l0,0l0,0v0l-0.1-0.1L203.7,0L203.5,1z"/>
	</defs>
	<use xlink:href="#SVGID_5_"  overflow="visible" fill="#616161"/>
	<clipPath id="SVGID_6_">
		<use xlink:href="#SVGID_5_"  overflow="visible"/>
	</clipPath>
</g>
</svg>
